<mxfile host="Electron" agent="Mozilla/5.0 (Windows NT 10.0; Win64; x64) AppleWebKit/537.36 (KHTML, like Gecko) draw.io/26.0.9 Chrome/128.0.6613.186 Electron/32.2.5 Safari/537.36" version="26.0.9">
  <diagram name="Page-1" id="9lIn4sGIHMFBUQ-l0S-O">
    <mxGraphModel dx="938" dy="1074" grid="1" gridSize="10" guides="1" tooltips="1" connect="1" arrows="1" fold="1" page="1" pageScale="1" pageWidth="850" pageHeight="1100" math="0" shadow="0">
      <root>
        <mxCell id="0" />
        <mxCell id="1" parent="0" />
        <mxCell id="OuiAhE0R-LckFvgqPbmE-2" value="" style="rounded=0;whiteSpace=wrap;html=1;" vertex="1" parent="1">
          <mxGeometry x="40" y="40" width="320" height="400" as="geometry" />
        </mxCell>
        <mxCell id="OuiAhE0R-LckFvgqPbmE-9" value="" style="endArrow=none;html=1;rounded=0;exitX=0;exitY=0.103;exitDx=0;exitDy=0;exitPerimeter=0;entryX=1.003;entryY=0.098;entryDx=0;entryDy=0;entryPerimeter=0;fillColor=#008a00;strokeColor=#005700;" edge="1" parent="1" source="OuiAhE0R-LckFvgqPbmE-2" target="OuiAhE0R-LckFvgqPbmE-2">
          <mxGeometry width="50" height="50" relative="1" as="geometry">
            <mxPoint x="440" y="140" as="sourcePoint" />
            <mxPoint x="490" y="90" as="targetPoint" />
          </mxGeometry>
        </mxCell>
        <mxCell id="OuiAhE0R-LckFvgqPbmE-10" value="" style="endArrow=none;html=1;rounded=0;exitX=0;exitY=0.103;exitDx=0;exitDy=0;exitPerimeter=0;entryX=1.003;entryY=0.098;entryDx=0;entryDy=0;entryPerimeter=0;fillColor=#008a00;strokeColor=#005700;" edge="1" parent="1">
          <mxGeometry width="50" height="50" relative="1" as="geometry">
            <mxPoint x="40" y="362" as="sourcePoint" />
            <mxPoint x="361" y="360" as="targetPoint" />
          </mxGeometry>
        </mxCell>
        <mxCell id="OuiAhE0R-LckFvgqPbmE-11" value="" style="endArrow=none;html=1;rounded=0;exitX=0.25;exitY=0;exitDx=0;exitDy=0;entryX=0.25;entryY=1;entryDx=0;entryDy=0;fillColor=#d80073;strokeColor=#A50040;" edge="1" parent="1" source="OuiAhE0R-LckFvgqPbmE-2" target="OuiAhE0R-LckFvgqPbmE-2">
          <mxGeometry width="50" height="50" relative="1" as="geometry">
            <mxPoint x="60" y="101" as="sourcePoint" />
            <mxPoint x="381" y="99" as="targetPoint" />
          </mxGeometry>
        </mxCell>
        <mxCell id="OuiAhE0R-LckFvgqPbmE-12" value="" style="endArrow=none;html=1;rounded=0;exitX=0.25;exitY=0;exitDx=0;exitDy=0;entryX=0.25;entryY=1;entryDx=0;entryDy=0;fillColor=#d80073;strokeColor=#A50040;" edge="1" parent="1">
          <mxGeometry width="50" height="50" relative="1" as="geometry">
            <mxPoint x="160" y="40" as="sourcePoint" />
            <mxPoint x="160" y="440" as="targetPoint" />
          </mxGeometry>
        </mxCell>
        <mxCell id="OuiAhE0R-LckFvgqPbmE-13" value="" style="endArrow=none;html=1;rounded=0;exitX=0.25;exitY=0;exitDx=0;exitDy=0;entryX=0.25;entryY=1;entryDx=0;entryDy=0;fillColor=#d80073;strokeColor=#A50040;" edge="1" parent="1">
          <mxGeometry width="50" height="50" relative="1" as="geometry">
            <mxPoint x="280" y="40" as="sourcePoint" />
            <mxPoint x="280" y="440" as="targetPoint" />
          </mxGeometry>
        </mxCell>
        <mxCell id="OuiAhE0R-LckFvgqPbmE-14" value="mt" style="text;html=1;align=center;verticalAlign=middle;whiteSpace=wrap;rounded=0;fontColor=#005700;" vertex="1" parent="1">
          <mxGeometry x="370" y="60" width="60" height="30" as="geometry" />
        </mxCell>
        <mxCell id="OuiAhE0R-LckFvgqPbmE-15" value="$text" style="text;html=1;align=center;verticalAlign=middle;whiteSpace=wrap;rounded=0;fontColor=#005700;" vertex="1" parent="1">
          <mxGeometry x="370" y="345" width="60" height="30" as="geometry" />
        </mxCell>
        <mxCell id="OuiAhE0R-LckFvgqPbmE-16" value="mb" style="text;html=1;align=center;verticalAlign=middle;whiteSpace=wrap;rounded=0;fontColor=#005700;" vertex="1" parent="1">
          <mxGeometry x="370" y="422" width="60" height="30" as="geometry" />
        </mxCell>
        <mxCell id="OuiAhE0R-LckFvgqPbmE-17" value="ml" style="text;html=1;align=center;verticalAlign=middle;whiteSpace=wrap;rounded=0;fontColor=#A50040;" vertex="1" parent="1">
          <mxGeometry x="90" y="452" width="60" height="30" as="geometry" />
        </mxCell>
        <mxCell id="OuiAhE0R-LckFvgqPbmE-18" value="i" style="text;html=1;align=center;verticalAlign=middle;whiteSpace=wrap;rounded=0;fontColor=#A50040;" vertex="1" parent="1">
          <mxGeometry x="130" y="452" width="60" height="30" as="geometry" />
        </mxCell>
        <mxCell id="OuiAhE0R-LckFvgqPbmE-19" value="$text" style="text;html=1;align=center;verticalAlign=middle;whiteSpace=wrap;rounded=0;fontColor=#A50040;" vertex="1" parent="1">
          <mxGeometry x="250" y="452" width="60" height="30" as="geometry" />
        </mxCell>
        <mxCell id="OuiAhE0R-LckFvgqPbmE-20" value="mr" style="text;html=1;align=center;verticalAlign=middle;whiteSpace=wrap;rounded=0;fontColor=#A50040;" vertex="1" parent="1">
          <mxGeometry x="330" y="452" width="60" height="30" as="geometry" />
        </mxCell>
        <mxCell id="OuiAhE0R-LckFvgqPbmE-21" value="1,1" style="text;html=1;align=center;verticalAlign=middle;whiteSpace=wrap;rounded=0;" vertex="1" parent="1">
          <mxGeometry x="50" y="50" width="40" height="30" as="geometry" />
        </mxCell>
        <mxCell id="OuiAhE0R-LckFvgqPbmE-22" value="1,2" style="text;html=1;align=center;verticalAlign=middle;whiteSpace=wrap;rounded=0;" vertex="1" parent="1">
          <mxGeometry x="120" y="50" width="40" height="30" as="geometry" />
        </mxCell>
        <mxCell id="OuiAhE0R-LckFvgqPbmE-23" value="1,3" style="text;html=1;align=center;verticalAlign=middle;whiteSpace=wrap;rounded=0;" vertex="1" parent="1">
          <mxGeometry x="190" y="50" width="40" height="30" as="geometry" />
        </mxCell>
        <mxCell id="OuiAhE0R-LckFvgqPbmE-24" value="1,4" style="text;html=1;align=center;verticalAlign=middle;whiteSpace=wrap;rounded=0;" vertex="1" parent="1">
          <mxGeometry x="300" y="50" width="40" height="30" as="geometry" />
        </mxCell>
        <mxCell id="OuiAhE0R-LckFvgqPbmE-25" value="2,1" style="text;html=1;align=center;verticalAlign=middle;whiteSpace=wrap;rounded=0;" vertex="1" parent="1">
          <mxGeometry x="50" y="210" width="40" height="30" as="geometry" />
        </mxCell>
        <mxCell id="OuiAhE0R-LckFvgqPbmE-26" value="2,2" style="text;html=1;align=center;verticalAlign=middle;whiteSpace=wrap;rounded=0;" vertex="1" parent="1">
          <mxGeometry x="120" y="210" width="40" height="30" as="geometry" />
        </mxCell>
        <mxCell id="OuiAhE0R-LckFvgqPbmE-27" value="2,3" style="text;html=1;align=center;verticalAlign=middle;whiteSpace=wrap;rounded=0;" vertex="1" parent="1">
          <mxGeometry x="190" y="210" width="40" height="30" as="geometry" />
        </mxCell>
        <mxCell id="OuiAhE0R-LckFvgqPbmE-28" value="2,4" style="text;html=1;align=center;verticalAlign=middle;whiteSpace=wrap;rounded=0;" vertex="1" parent="1">
          <mxGeometry x="300" y="210" width="40" height="30" as="geometry" />
        </mxCell>
        <mxCell id="OuiAhE0R-LckFvgqPbmE-29" value="3,1" style="text;html=1;align=center;verticalAlign=middle;whiteSpace=wrap;rounded=0;" vertex="1" parent="1">
          <mxGeometry x="50" y="392" width="40" height="30" as="geometry" />
        </mxCell>
        <mxCell id="OuiAhE0R-LckFvgqPbmE-30" value="3,2" style="text;html=1;align=center;verticalAlign=middle;whiteSpace=wrap;rounded=0;" vertex="1" parent="1">
          <mxGeometry x="120" y="392" width="40" height="30" as="geometry" />
        </mxCell>
        <mxCell id="OuiAhE0R-LckFvgqPbmE-31" value="3,3" style="text;html=1;align=center;verticalAlign=middle;whiteSpace=wrap;rounded=0;" vertex="1" parent="1">
          <mxGeometry x="190" y="392" width="40" height="30" as="geometry" />
        </mxCell>
        <mxCell id="OuiAhE0R-LckFvgqPbmE-32" value="3,4" style="text;html=1;align=center;verticalAlign=middle;whiteSpace=wrap;rounded=0;" vertex="1" parent="1">
          <mxGeometry x="300" y="392" width="40" height="30" as="geometry" />
        </mxCell>
        <mxCell id="OuiAhE0R-LckFvgqPbmE-33" value="" style="endArrow=none;dashed=1;html=1;dashPattern=1 3;strokeWidth=2;rounded=0;fontColor=#A8A8A8;" edge="1" parent="1">
          <mxGeometry width="50" height="50" relative="1" as="geometry">
            <mxPoint x="160" y="360" as="sourcePoint" />
            <mxPoint x="280" y="80" as="targetPoint" />
          </mxGeometry>
        </mxCell>
        <mxCell id="OuiAhE0R-LckFvgqPbmE-34" value="" style="endArrow=none;dashed=1;html=1;dashPattern=1 3;strokeWidth=2;rounded=0;fontColor=#A8A8A8;entryX=1;entryY=1;entryDx=0;entryDy=0;" edge="1" parent="1" target="OuiAhE0R-LckFvgqPbmE-22">
          <mxGeometry width="50" height="50" relative="1" as="geometry">
            <mxPoint x="280" y="360" as="sourcePoint" />
            <mxPoint x="290" y="90" as="targetPoint" />
          </mxGeometry>
        </mxCell>
      </root>
    </mxGraphModel>
  </diagram>
</mxfile>
